<svg width="107" height="35" viewBox="0 0 107 35" fill="none" xmlns="http://www.w3.org/2000/svg">
<path opacity="0.7" d="M103.922 24.5134C103.835 25.1447 103.202 26.3239 100.565 27.6438C98.032 28.9114 94.2752 29.9707 89.4431 30.6785C79.8204 32.088 66.6279 32.0063 52.1903 30.0224C37.7526 28.0385 25.0271 24.5588 16.1412 20.606C11.6791 18.6211 8.34726 16.5877 6.25027 14.684C4.06657 12.7015 3.77529 11.3953 3.86203 10.7641C3.94877 10.1329 4.58157 8.95366 7.21906 7.6337C9.75181 6.36617 13.5087 5.30685 18.3407 4.59907C27.9634 3.18956 41.1559 3.27123 55.5936 5.25513C70.0312 7.23903 82.7568 10.7188 91.6427 14.6716C96.1047 16.6565 99.4366 18.6899 101.534 20.5936C103.717 22.576 104.009 23.8822 103.922 24.5134Z" stroke="url(#paint0_radial_8_8)" stroke-width="6"/>
<defs>
<radialGradient id="paint0_radial_8_8" cx="0" cy="0" r="1" gradientUnits="userSpaceOnUse" gradientTransform="translate(53.8919 17.6388) rotate(97.8241) scale(15.5 53.5)">
<stop stop-color="#3F51E8"/>
<stop offset="0.572917" stop-color="#9BA4ED"/>
<stop offset="1" stop-color="#1F34E7"/>
</radialGradient>
</defs>
</svg>
