<svg width="66" height="22" viewBox="0 0 66 22" fill="none" xmlns="http://www.w3.org/2000/svg">
<path opacity="0.3" d="M63.1203 14.9879C63.077 15.3029 62.7473 15.9912 61.1655 16.7911C59.65 17.5574 57.3884 18.2053 54.4622 18.6411C48.6371 19.5085 40.6408 19.4694 31.8832 18.266C23.1257 17.0626 15.4152 14.9435 10.0399 12.537C7.33975 11.3281 5.33671 10.0942 4.08405 8.94744C2.77661 7.75055 2.64483 6.99889 2.68813 6.68383C2.73142 6.36877 3.06105 5.6805 4.64288 4.88063C6.15842 4.11428 8.42004 3.46636 11.3462 3.03061C17.1713 2.16317 25.1676 2.20229 33.9252 3.40567C42.6827 4.60906 50.3932 6.72823 55.7685 9.13473C58.4686 10.3436 60.4717 11.5775 61.7243 12.7243C63.0318 13.9212 63.1636 14.6728 63.1203 14.9879Z" stroke="url(#paint0_radial_8_9)" stroke-width="4"/>
<defs>
<radialGradient id="paint0_radial_8_9" cx="0" cy="0" r="1" gradientUnits="userSpaceOnUse" gradientTransform="translate(32.9042 10.8359) rotate(97.8241) scale(9.5 32.5)">
<stop stop-color="#3F51E8"/>
<stop offset="0.572917" stop-color="#9BA4ED"/>
<stop offset="1" stop-color="#1F34E7"/>
</radialGradient>
</defs>
</svg>
