<svg width="251" height="79" viewBox="0 0 251 79" fill="none" xmlns="http://www.w3.org/2000/svg">
<path opacity="0.4" d="M245.761 52.3937C245.493 54.9139 243.326 58.197 237.012 61.603C230.869 64.9163 221.861 67.731 210.432 69.7649C187.641 73.8205 156.377 74.5736 122.11 70.9325C87.8425 67.2914 57.4346 59.9854 36.0052 51.2313C25.2583 46.841 17.0432 42.1963 11.7339 37.6662C6.27599 33.0093 4.84764 29.3442 5.11543 26.824C5.38322 24.3037 7.54984 21.0206 13.8645 17.6146C20.0072 14.3014 29.0149 11.4866 40.4444 9.45275C63.2348 5.39718 94.4991 4.64409 128.766 8.28515C163.034 11.9262 193.442 19.2322 214.871 27.9864C225.618 32.3766 233.833 37.0214 239.142 41.5514C244.6 46.2083 246.029 49.8734 245.761 52.3937Z" stroke="url(#paint0_radial_8_12)" stroke-width="10"/>
<defs>
<radialGradient id="paint0_radial_8_12" cx="0" cy="0" r="1" gradientUnits="userSpaceOnUse" gradientTransform="translate(125.438 39.6088) rotate(96.0652) scale(36.5 126)">
<stop stop-color="#3F51E8"/>
<stop offset="0.572917" stop-color="#9BA4ED"/>
<stop offset="1" stop-color="#1F34E7"/>
</radialGradient>
</defs>
</svg>
