<svg width="36" height="26" viewBox="0 0 36 26" fill="none" xmlns="http://www.w3.org/2000/svg">
<path d="M1.33337 9.66668C1.33337 8.78262 1.68456 7.93478 2.30968 7.30965C2.93481 6.68453 3.78265 6.33334 4.66671 6.33334H31.3334C32.2174 6.33334 33.0653 6.68453 33.6904 7.30965C34.3155 7.93478 34.6667 8.78262 34.6667 9.66668V21.3333C34.6667 22.2174 34.3155 23.0652 33.6904 23.6904C33.0653 24.3155 32.2174 24.6667 31.3334 24.6667H24.8867C24.3111 24.6667 23.7453 24.5176 23.2444 24.234C22.7435 23.9504 22.3245 23.5419 22.0284 23.0483L19.4284 18.715C19.2802 18.4686 19.0708 18.2647 18.8205 18.1231C18.5702 17.9816 18.2876 17.9072 18 17.9072C17.7125 17.9072 17.4299 17.9816 17.1796 18.1231C16.9293 18.2647 16.7199 18.4686 16.5717 18.715L13.9717 23.0483C13.6756 23.5419 13.2566 23.9504 12.7557 24.234C12.2548 24.5176 11.689 24.6667 11.1134 24.6667H4.66671C3.78265 24.6667 2.93481 24.3155 2.30968 23.6904C1.68456 23.0652 1.33337 22.2174 1.33337 21.3333V9.66668Z" stroke="white" stroke-width="2" stroke-linecap="round" stroke-linejoin="round"/>
<path d="M4.355 4.30168C4.96364 3.38883 5.78818 2.6403 6.75545 2.12251C7.72273 1.60471 8.80285 1.33364 9.9 1.33334H26.0967C27.1941 1.33336 28.2746 1.6043 29.2421 2.12211C30.2097 2.63992 31.0345 3.38859 31.6433 4.30168L33 6.33334H3L4.355 4.30168V4.30168Z" stroke="white" stroke-width="2" stroke-linecap="round" stroke-linejoin="round"/>
</svg>
