<svg width="40" height="40" viewBox="0 0 40 40" fill="none" xmlns="http://www.w3.org/2000/svg">
<path d="M12 14.6667L13.0667 15.4667C13.2152 15.2686 13.3057 15.033 13.3279 14.7864C13.3502 14.5398 13.3033 14.2919 13.1926 14.0704C13.0818 13.8489 12.9116 13.6627 12.701 13.5325C12.4903 13.4023 12.2476 13.3333 12 13.3333V14.6667ZM8 20L6.93333 19.2C6.78476 19.3981 6.69429 19.6337 6.67205 19.8803C6.64982 20.1269 6.69669 20.3748 6.80743 20.5963C6.91817 20.8178 7.08839 21.004 7.29903 21.1342C7.50966 21.2644 7.75238 21.3333 8 21.3333V20ZM33.9627 7.61068L34.9813 8.47201L33.9627 7.61068ZM5.33333 16H12V13.3333H5.33333V16ZM10.9333 13.8667L6.93333 19.2L9.06667 20.8L13.0667 15.4667L10.9333 13.8667ZM8 21.3333H9.33333V18.6667H8V21.3333ZM9.33333 24H5.33333V26.6667H9.33333V24ZM10.6667 22.6667C10.6667 23.0203 10.5262 23.3594 10.2761 23.6095C10.0261 23.8595 9.68696 24 9.33333 24V26.6667C10.3942 26.6667 11.4116 26.2452 12.1618 25.4951C12.9119 24.745 13.3333 23.7275 13.3333 22.6667H10.6667ZM9.33333 21.3333C9.68696 21.3333 10.0261 21.4738 10.2761 21.7239C10.5262 21.9739 10.6667 22.3131 10.6667 22.6667H13.3333C13.3333 21.6058 12.9119 20.5884 12.1618 19.8382C11.4116 19.0881 10.3942 18.6667 9.33333 18.6667V21.3333ZM21.3333 13.3333H20V16H21.3333V13.3333ZM16 17.3333V20H18.6667V17.3333H16ZM16 20V22.6667H18.6667V20H16ZM20 18.6667H17.3333V21.3333H20V18.6667ZM24 22.6667C24 21.6058 23.5786 20.5884 22.8284 19.8382C22.0783 19.0881 21.0609 18.6667 20 18.6667V21.3333C20.3536 21.3333 20.6928 21.4738 20.9428 21.7239C21.1929 21.9739 21.3333 22.3131 21.3333 22.6667H24ZM20 26.6667C21.0609 26.6667 22.0783 26.2452 22.8284 25.4951C23.5786 24.745 24 23.7275 24 22.6667H21.3333C21.3333 23.0203 21.1929 23.3594 20.9428 23.6095C20.6928 23.8595 20.3536 24 20 24V26.6667ZM20 24C19.6464 24 19.3072 23.8595 19.0572 23.6095C18.8071 23.3594 18.6667 23.0203 18.6667 22.6667H16C16 23.7275 16.4214 24.745 17.1716 25.4951C17.9217 26.2452 18.9391 26.6667 20 26.6667V24ZM20 13.3333C18.9391 13.3333 17.9217 13.7548 17.1716 14.5049C16.4214 15.2551 16 16.2725 16 17.3333H18.6667C18.6667 16.9797 18.8071 16.6406 19.0572 16.3905C19.3072 16.1405 19.6464 16 20 16V13.3333ZM32 17.3333V22.6667H34.6667V17.3333H32ZM29.3333 22.6667V17.3333H26.6667V22.6667H29.3333ZM30.6667 24C30.313 24 29.9739 23.8595 29.7239 23.6095C29.4738 23.3594 29.3333 23.0203 29.3333 22.6667H26.6667C26.6667 23.7275 27.0881 24.745 27.8382 25.4951C28.5884 26.2452 29.6058 26.6667 30.6667 26.6667V24ZM32 22.6667C32 23.0203 31.8595 23.3594 31.6095 23.6095C31.3594 23.8595 31.0203 24 30.6667 24V26.6667C31.7275 26.6667 32.7449 26.2452 33.4951 25.4951C34.2452 24.745 34.6667 23.7275 34.6667 22.6667H32ZM30.6667 16C31.0203 16 31.3594 16.1405 31.6095 16.3905C31.8595 16.6406 32 16.9797 32 17.3333H34.6667C34.6667 16.2725 34.2452 15.2551 33.4951 14.5049C32.7449 13.7548 31.7275 13.3333 30.6667 13.3333V16ZM30.6667 13.3333C29.6058 13.3333 28.5884 13.7548 27.8382 14.5049C27.0881 15.2551 26.6667 16.2725 26.6667 17.3333H29.3333C29.3333 16.9797 29.4738 16.6406 29.7239 16.3905C29.9739 16.1405 30.313 16 30.6667 16V13.3333ZM20 37.3333C15.4029 37.3333 10.9941 35.5072 7.74348 32.2565C4.49285 29.0059 2.66667 24.5971 2.66667 20H0C0 25.3043 2.10714 30.3914 5.85786 34.1421C9.60859 37.8929 14.6957 40 20 40V37.3333ZM37.3333 20C37.3333 22.2763 36.885 24.5302 36.0139 26.6332C35.1428 28.7362 33.8661 30.647 32.2565 32.2565C30.647 33.8661 28.7362 35.1428 26.6332 36.0139C24.5302 36.885 22.2762 37.3333 20 37.3333V40C25.3043 40 30.3914 37.8929 34.1421 34.1421C37.8929 30.3914 40 25.3043 40 20H37.3333ZM20 1.10503e-05C14.6957 1.10503e-05 9.60859 2.10715 5.85786 5.85787C2.10714 9.6086 0 14.6957 0 20H2.66667C2.66667 15.4029 4.49285 10.9941 7.74348 7.74349C10.9941 4.49286 15.4029 2.66668 20 2.66668V1.10503e-05ZM36 8.00001C36.3536 8.00001 36.6928 8.14049 36.9428 8.39053C37.1929 8.64058 37.3333 8.97972 37.3333 9.33334H40C40 8.27248 39.5786 7.25506 38.8284 6.50492C38.0783 5.75477 37.0609 5.33334 36 5.33334V8.00001ZM36 10.6667C35.6464 10.6667 35.3072 10.5262 35.0572 10.2762C34.8071 10.0261 34.6667 9.68697 34.6667 9.33334H32C32 10.3942 32.4214 11.4116 33.1716 12.1618C33.9217 12.9119 34.9391 13.3333 36 13.3333V10.6667ZM34.6667 9.33334C34.6667 9.00534 34.784 8.70668 34.9813 8.47201L32.9467 6.74934C32.3573 7.44534 32 8.34934 32 9.33334H34.6667ZM34.9813 8.47201C35.1064 8.32372 35.2623 8.20461 35.4383 8.12307C35.6143 8.04152 35.806 7.99952 36 8.00001V5.33334C34.7733 5.33334 33.6773 5.88534 32.9467 6.74934L34.9813 8.47201ZM20 2.66668C25.1573 2.66668 29.7893 4.91734 32.9653 8.49601L34.96 6.72534C33.0853 4.60836 30.7821 2.91399 28.2029 1.75454C25.6238 0.595092 22.8277 -0.00296467 20 1.10503e-05V2.66668ZM35.6107 12.4533C36.7147 14.736 37.3333 17.2933 37.3333 20H40C40 16.88 39.2853 13.928 38.0107 11.2933L35.6107 12.456V12.4533ZM37.3333 9.33334C37.3337 9.61642 37.244 9.89227 37.0771 10.121C36.9103 10.3496 36.675 10.5193 36.4053 10.6053L37.216 13.144C38.0242 12.8861 38.7294 12.378 39.2299 11.693C39.7303 11.008 40 10.1817 40 9.33334H37.3333ZM36.4053 10.6053C36.2742 10.6466 36.1375 10.6672 36 10.6667V13.3333C36.4125 13.3342 36.8227 13.2712 37.216 13.1467L36.4053 10.6053Z" fill="white"/>
</svg>
