<svg width="43" height="43" viewBox="0 0 43 43" fill="none" xmlns="http://www.w3.org/2000/svg">
<path d="M29.5 21.5C29.5 27.2785 28.4621 32.4379 26.8455 36.0965C26.0363 37.9279 25.1115 39.3166 24.1606 40.2268C23.2172 41.1299 22.3206 41.5 21.5 41.5C20.6794 41.5 19.7828 41.1299 18.8394 40.2268C17.8885 39.3166 16.9637 37.9279 16.1545 36.0965C14.5379 32.4379 13.5 27.2785 13.5 21.5C13.5 15.7215 14.5379 10.5621 16.1545 6.90345C16.9637 5.07211 17.8885 3.68344 18.8394 2.77315C19.7828 1.87009 20.6794 1.5 21.5 1.5C22.3206 1.5 23.2172 1.87009 24.1606 2.77315C25.1115 3.68344 26.0363 5.07211 26.8455 6.90345C28.4621 10.5621 29.5 15.7215 29.5 21.5Z" stroke="white" stroke-width="3"/>
<path d="M21.5 29.5C15.7215 29.5 10.5621 28.4621 6.90345 26.8455C5.07211 26.0363 3.68344 25.1115 2.77315 24.1606C1.87009 23.2172 1.5 22.3206 1.5 21.5C1.5 20.6794 1.87009 19.7828 2.77315 18.8394C3.68344 17.8885 5.07211 16.9637 6.90345 16.1545C10.5621 14.5379 15.7215 13.5 21.5 13.5C27.2785 13.5 32.4379 14.5379 36.0965 16.1545C37.9279 16.9637 39.3166 17.8885 40.2268 18.8394C41.1299 19.7828 41.5 20.6794 41.5 21.5C41.5 22.3206 41.1299 23.2172 40.2268 24.1606C39.3166 25.1115 37.9279 26.0363 36.0965 26.8455C32.4379 28.4621 27.2785 29.5 21.5 29.5Z" stroke="#9BA4ED" stroke-width="3"/>
</svg>
