<svg width="42" height="35" viewBox="0 0 42 35" fill="none" xmlns="http://www.w3.org/2000/svg">
<path d="M38.92 34C37 34.96 34.44 34.32 33.16 32.4L29.64 27.92H12.36L8.84 32.4C7.24 34.64 4.36 34.96 2.12 33.36C0.519995 32.08 -0.120005 30.16 0.199995 28.56L2.44 16.72C3.08 12.88 6.6 9.99999 10.44 9.99999H19.4V5.19999C19.4 2.63999 21.32 0.399994 23.88 0.399994H33.8C34.76 0.399994 35.4 1.03999 35.4 1.99999C35.4 2.95999 34.76 3.59999 33.8 3.59999H24.2C23.24 3.59999 22.6 4.23999 22.6 4.87999V9.99999H31.56C35.4 9.99999 38.92 12.88 39.56 16.72L41.8 28.56C42.12 30.8 41.16 33.04 38.92 34ZM16.2 18C16.2 15.44 13.96 13.2 11.4 13.2C8.84 13.2 6.6 15.44 6.6 18C6.6 20.56 8.84 22.8 11.4 22.8C13.96 22.8 16.2 20.56 16.2 18ZM35.4 18C35.4 17.04 34.76 16.4 33.8 16.4H32.2V14.8C32.2 13.84 31.56 13.2 30.6 13.2C29.64 13.2 29 13.84 29 14.8V16.4H27.4C26.44 16.4 25.8 17.04 25.8 18C25.8 18.96 26.44 19.6 27.4 19.6H29V21.2C29 22.16 29.64 22.8 30.6 22.8C31.56 22.8 32.2 22.16 32.2 21.2V19.6H33.8C34.76 19.6 35.4 18.96 35.4 18Z" fill="white"/>
</svg>
